# Blender 4.1.1
# www.blender.org
mtllib KnifeUpdated.mtl
o Knife
v -0.007283 0.050282 -0.117133
v -0.006994 0.036205 -0.108369
v -0.003697 0.022893 -0.106550
v -0.014530 -0.005452 -0.120901
v -0.007373 0.031826 -0.089388
v -0.004615 0.048847 -0.030766
v 0.011625 0.046723 -0.124175
v -0.030029 0.042590 -0.123624
v -0.002189 0.007083 -0.103232
v -0.011809 0.032584 -0.047410
v -0.002519 0.035556 -0.107371
v 0.001168 0.036607 -0.090812
v 0.023217 0.041391 -0.129431
v -0.042246 0.025484 -0.159913
v -0.033629 -0.007368 -0.129112
v 0.007392 -0.014468 -0.124276
v -0.003102 -0.006440 -0.110521
v -0.004704 0.021590 -0.089564
v -0.004890 0.025091 -0.074839
v 0.027552 0.005107 -0.127666
v -0.012702 -0.015148 -0.138566
v -0.006560 -0.021316 -0.111611
v -0.011368 -0.000525 -0.032478
v 0.035157 0.023906 -0.178289
v -0.000594 -0.027839 -0.114115
v -0.005651 -0.037757 -0.133113
v -0.000096 0.016560 -0.059737
v -0.003990 0.012941 -0.083931
v -0.041812 0.003505 -0.181475
v -0.002953 -0.008478 -0.103426
v 0.023199 -0.008999 -0.148919
v -0.005146 -0.048479 -0.065679
v -0.001972 0.005200 -0.091581
v 0.002691 0.037782 0.009450
v -0.003515 -0.010324 -0.093179
v -0.030699 0.045884 -0.345028
v 0.006587 -0.039074 -0.029977
v -0.011661 0.030843 0.095011
v 0.013638 -0.027335 -0.275323
v -0.008305 -0.029508 -0.293169
v -0.015644 -0.039286 -0.051140
v 0.027167 -0.018765 -0.287439
v 0.036371 -0.002753 -0.377207
v -0.018612 -0.020610 0.004362
v -0.029883 -0.024282 -0.289318
v -0.017701 -0.041008 0.072676
v -0.013162 0.002346 0.076545
v -0.004883 0.044589 0.162065
v -0.010578 0.052355 -0.326329
v -0.009872 -0.054995 0.040303
v 0.003355 -0.052655 0.054523
v 0.008937 -0.026995 0.137456
v -0.019913 -0.017922 0.132037
v 0.003614 0.002033 0.072125
v 0.015562 0.048172 -0.443473
v 0.003148 0.031227 0.206940
v 0.036068 0.027526 -0.447455
v -0.012692 0.030873 0.214485
v -0.041205 0.034789 -0.415507
v -0.030701 0.043485 -0.457337
v 0.002887 -0.049443 0.212452
v -0.037110 -0.019522 -0.405329
v -0.047932 0.007733 -0.447619
v 0.002627 -0.029478 -0.408553
v 0.007260 -0.031666 0.304569
v -0.018890 -0.017002 0.274176
v -0.015625 0.033665 -0.484347
v 0.019699 -0.036216 -0.441118
v -0.021142 -0.039715 -0.445190
v -0.003467 -0.052088 0.255629
v -0.038395 -0.026426 -0.453077
v 0.034424 -0.015727 -0.464708
v -0.028716 0.002700 -0.488019
v 0.007420 -0.012454 0.238546
v -0.015794 -0.041506 0.254001
v 0.001133 0.041081 0.312986
v 0.015215 0.028454 -0.482920
v 0.026996 0.006278 -0.480226
v -0.003140 -0.029160 -0.473759
v -0.012692 0.035270 0.295631
v -0.014897 0.042902 0.394514
v 0.004594 0.038643 0.412393
v -0.015327 -0.034399 0.395144
v -0.014258 0.033213 0.433566
v 0.004442 -0.034057 0.441464
v 0.004594 0.034840 0.450954
v -0.008325 -0.040651 0.438788
v -0.011803 0.006783 0.511035
v 0.001895 0.007716 0.511740
v -0.000815 -0.023537 -0.055969
v -0.004504 0.027370 -0.055752
v -0.003315 -0.029097 -0.070234
v -0.005307 -0.013959 -0.070891
v -0.004068 0.008540 -0.088262
v -0.005422 0.017347 -0.084881
v -0.002017 -0.001221 -0.091067
v -0.002165 0.008709 -0.091095
v -0.006418 0.030883 -0.077621
v -0.003625 0.006720 -0.113112
v -0.008596 0.031893 -0.086671
v -0.002349 -0.008970 -0.097864
v -0.003806 -0.014180 -0.113903
v -0.003934 -0.020342 -0.099131
v -0.001346 -0.017548 -0.084992
v -0.003515 -0.028849 -0.084836
v -0.002463 -0.005576 -0.096563
v -0.003129 -0.008925 -0.112944
v -0.001680 -0.028554 -0.092638
v -0.004272 -0.024540 -0.113982
v -0.002535 -0.022445 -0.114171
vn -0.8316 0.0375 0.5542
vn -0.8312 0.0375 0.5547
vn -0.8314 0.0370 0.5544
vn -0.8749 0.4726 -0.1060
vn -0.8686 0.4817 -0.1166
vn -0.8753 0.4708 -0.1110
vn -0.3868 -0.0722 0.9193
vn -0.3867 -0.0740 0.9192
vn -0.3865 -0.0736 0.9194
vn 0.9484 0.1496 0.2797
vn 0.9486 0.1491 0.2792
vn 0.5885 -0.4140 0.6945
vn 0.5901 -0.4107 0.6951
vn 0.5884 -0.4138 0.6947
vn 0.9270 -0.3616 0.0996
vn 0.9282 -0.3574 0.1033
vn 0.9278 -0.3589 0.1016
vn 0.1785 -0.0147 0.9838
vn 0.1781 -0.0136 0.9839
vn 0.1782 -0.0143 0.9839
vn 0.1874 0.9823 0.0068
vn -0.1585 -0.8192 0.5511
vn -0.0485 -0.8399 0.5406
vn -0.0775 -0.8492 0.5224
vn -0.9572 -0.2434 0.1563
vn -0.9543 -0.2467 0.1687
vn -0.9567 -0.2405 0.1640
vn 0.1909 -0.8249 -0.5320
vn 0.1814 -0.8260 -0.5336
vn 0.1880 -0.8253 -0.5325
vn -0.9904 0.0292 -0.1349
vn -0.9907 0.0278 -0.1331
vn -0.9907 0.0281 -0.1331
vn -0.9822 -0.1412 0.1242
vn 0.7079 -0.6378 0.3034
vn 0.7082 -0.6380 0.3024
vn 0.7125 -0.6316 0.3056
vn 0.9601 0.2091 -0.1857
vn 0.9600 0.2100 -0.1849
vn 0.9601 0.2096 -0.1852
vn -0.3240 0.9459 0.0145
vn 0.1408 -0.9829 -0.1187
vn 0.1404 -0.9830 -0.1185
vn 0.1405 -0.9834 -0.1144
vn 0.8787 0.4313 -0.2046
vn 0.8777 0.4334 -0.2043
vn 0.8787 0.4316 -0.2039
vn -0.9722 0.1222 -0.1996
vn -0.9735 0.1188 -0.1953
vn -0.9728 0.1225 -0.1966
vn -0.3188 0.9477 0.0151
vn 0.9886 0.1113 -0.1014
vn 0.9886 0.1130 -0.0992
vn 0.9885 0.1130 -0.1009
vn -0.8245 0.5657 0.0109
vn 0.2026 -0.9712 0.1256
vn -0.3159 -0.9455 0.0788
vn 0.9932 0.0834 -0.0810
vn 0.9939 0.0754 -0.0807
vn 0.9934 0.0811 -0.0816
vn 0.8388 0.5444 0.0102
vn -0.7845 0.6198 0.0194
vn 0.9608 -0.2740 0.0426
vn -0.2178 -0.9711 0.0974
vn 0.9998 0.0184 0.0036
vn 0.9989 0.0450 0.0110
vn -0.9115 0.4112 0.0081
vn -0.9116 0.4111 0.0076
vn -0.9115 0.4112 0.0075
vn -0.9944 -0.1046 -0.0180
vn 0.9757 -0.2191 0.0021
vn 0.9913 0.1294 -0.0233
vn 0.4214 0.9068 0.0093
vn -0.8629 -0.5042 0.0331
vn -0.9973 -0.0734 -0.0086
vn 0.8511 -0.4505 -0.2695
vn -0.9910 0.1054 -0.0821
vn 0.9952 0.0978 0.0009
vn 0.8316 0.5552 0.0165
vn -0.9376 -0.3474 0.0160
vn -0.9717 0.2361 0.0046
vn -0.2910 0.9564 -0.0229
vn -0.2916 0.9563 -0.0219
vn -0.2920 0.9562 -0.0212
vn -0.2392 -0.9707 -0.0229
vn 0.9717 -0.2362 0.0077
vn 0.9952 0.0979 0.0009
vn 0.0062 0.9409 -0.3387
vn 0.6565 -0.7513 -0.0682
vn 0.6556 -0.7522 -0.0669
vn 0.6559 -0.7519 -0.0676
vn 0.9994 -0.0309 -0.0176
vn -0.1961 -0.9041 0.3796
vn -0.1958 -0.9040 0.3801
vn -0.1959 -0.9040 0.3799
vn -0.8384 -0.5441 0.0323
vn 0.1687 0.8824 -0.4391
vn 0.1664 0.8816 -0.4416
vn 0.1671 0.8821 -0.4404
vn 0.8437 -0.5327 0.0659
vn 0.8455 -0.5308 0.0584
vn 0.8452 -0.5309 0.0618
vn 0.8917 0.4518 -0.0250
vn 0.8919 0.4516 -0.0249
vn -0.8511 0.2882 -0.4388
vn -0.8502 0.2876 -0.4410
vn -0.8510 0.2878 -0.4393
vn 0.0615 0.0919 -0.9939
vn 0.0600 -0.9708 0.2323
vn -0.6408 -0.7575 0.1250
vn -0.6420 -0.7563 0.1254
vn -0.6418 -0.7565 0.1254
vn -0.9912 -0.1318 0.0080
vn 0.1386 -0.0482 -0.9892
vn 0.1419 -0.0491 -0.9887
vn 0.1406 -0.0488 -0.9889
vn 0.9995 0.0289 0.0108
vn 0.9945 0.1039 0.0092
vn 0.3949 -0.8013 -0.4495
vn -0.6517 -0.7584 0.0048
vn 0.7881 -0.6108 0.0769
vn 0.7903 -0.6083 0.0735
vn 0.7876 -0.6114 0.0767
vn 0.9964 0.0809 0.0260
vn -0.9909 0.1307 -0.0322
vn 0.9956 0.0876 -0.0325
vn 0.1981 0.9800 0.0178
vn 0.1978 0.9801 0.0167
vn 0.1983 0.9800 0.0176
vn -0.9998 0.0057 0.0178
vn -0.1748 0.9798 0.0970
vn -0.1743 0.9800 0.0957
vn -0.1750 0.9798 0.0970
vn 0.4466 -0.8922 0.0676
vn -0.9995 -0.0018 0.0310
vn -0.0873 0.9127 0.3993
vn -0.0794 0.9136 0.3987
vn -0.0837 0.9134 0.3983
vn 0.9992 -0.0089 0.0402
vn 0.9991 -0.0083 0.0415
vn 0.9991 -0.0088 0.0411
vn 0.3169 -0.8094 0.4944
vn 0.3172 -0.8095 0.4941
vn 0.3174 -0.8097 0.4936
vn 0.9692 0.1182 -0.2159
vn -0.7616 -0.1070 -0.6392
vn -0.8459 -0.1832 -0.5010
vn -0.4420 -0.8940 0.0729
vn 0.9725 0.1653 0.1643
vn 0.9806 0.1069 0.1641
vn 0.9758 0.1385 0.1692
vn 0.9887 0.1349 -0.0657
vn 0.9887 0.1348 -0.0654
vn 0.9887 0.1350 -0.0655
vn 0.2879 -0.8315 0.4750
vn 0.0825 -0.9816 -0.1723
vn 0.5215 -0.6817 0.5132
vn 0.9316 -0.3575 -0.0655
vn 0.9317 -0.3571 -0.0662
vn 0.9327 -0.3544 -0.0672
vn 0.5798 -0.0156 -0.8146
vn -0.6741 0.7385 -0.0158
vn -0.3625 -0.7765 -0.5153
vn -0.3630 -0.7768 -0.5146
vn -0.3630 -0.7762 -0.5155
vn -0.9570 -0.1997 0.2103
vn -0.9573 -0.1808 0.2254
vn -0.9617 -0.1670 0.2173
vn -0.5930 -0.0165 0.8051
vn -0.5918 -0.0045 0.8061
vn -0.5883 -0.0074 0.8086
vn -0.9990 0.0388 0.0200
vn -0.9989 0.0375 0.0270
vn -0.9990 0.0369 0.0256
vn -0.9991 0.0365 0.0225
vn 0.8903 0.4528 -0.0482
vn 0.8899 0.4524 -0.0583
vn 0.8892 0.4540 -0.0563
vn 0.8891 0.4548 -0.0521
vn -0.2627 -0.0331 0.9643
vn -0.2615 -0.0313 0.9647
vn -0.2618 -0.0296 0.9647
vn -0.9102 -0.4125 -0.0364
vn -0.9116 -0.4092 -0.0399
vn -0.9098 -0.4123 -0.0467
vn -0.9100 -0.4113 -0.0527
vn -0.6510 -0.3256 0.6857
vn 0.7842 -0.0534 0.6182
vn 0.7845 -0.0516 0.6180
vn 0.7846 -0.0492 0.6180
vn 0.7861 -0.0477 0.6162
vn 0.4461 0.0983 0.8896
vn 0.4457 0.0972 0.8899
vn 0.4462 0.0955 0.8898
vn -0.9521 0.0352 0.3039
vn -0.8921 -0.2270 0.3908
vn -0.8928 -0.2275 0.3887
vn -0.8916 -0.2281 0.3912
vn -0.8917 -0.2294 0.3901
vn 0.6854 -0.0402 0.7270
vn 0.6852 -0.0392 0.7273
vn 0.6848 -0.0396 0.7276
vn 0.6860 -0.0409 0.7264
vn -0.9739 -0.1091 -0.1988
vn -0.9719 -0.0975 -0.2140
vn -0.9724 -0.0938 -0.2135
vn -0.9603 -0.2599 -0.1011
vn -0.9564 -0.2721 -0.1063
vn -0.9559 -0.2727 -0.1092
vn -0.9594 -0.2639 -0.0994
vn 0.9731 0.1257 0.1929
vn 0.3708 0.4354 -0.8204
vn 0.2785 0.4216 -0.8630
vn 0.2146 0.3029 -0.9285
vn 0.8715 -0.4901 0.0164
vn 0.8770 -0.4799 0.0236
vn 0.8740 -0.4849 0.0326
vn -0.9812 0.1289 -0.1435
vn -0.9449 0.3257 -0.0334
vn -0.9446 0.3263 -0.0339
vn -0.9458 0.3229 -0.0339
vn -0.9458 0.3229 -0.0345
vn 0.8650 0.5014 -0.0181
vn 0.8655 0.5006 -0.0186
vn 0.8652 0.5010 -0.0197
vn 0.9458 -0.3216 0.0458
vn 0.9963 -0.0847 -0.0141
vn -0.9167 0.3995 0.0058
vn 0.9943 0.0842 -0.0659
vn -0.9999 -0.0129 0.0009
vn 0.5800 -0.8113 0.0738
vn 0.5313 -0.8446 -0.0669
vn 0.0228 -0.9954 0.0931
vn 0.8436 -0.5183 -0.1403
vn 0.8439 -0.5180 -0.1397
vn 0.8436 -0.5177 -0.1425
vn -0.9089 0.0413 0.4149
vn -0.9090 0.0403 0.4149
vn -0.9092 0.0387 0.4147
vn -0.9097 0.0382 0.4135
vn -0.9815 0.1594 -0.1061
vn -0.9535 0.3006 -0.0236
vn -0.9978 0.0643 -0.0181
vn -0.7134 -0.6967 -0.0746
vn 0.8101 0.5861 0.0141
vn -0.6589 0.7521 0.0106
vn -0.6590 0.7519 0.0174
vn -0.6604 0.7508 0.0151
vn -0.6600 0.7512 0.0120
vn -0.9607 0.2772 -0.0156
vn 0.1875 0.9822 0.0068
vn -0.8680 -0.4956 0.0327
vn -0.8896 -0.4562 -0.0248
vn -0.8891 -0.4570 -0.0244
vn -0.8909 -0.4533 -0.0276
vn -0.9989 -0.0416 0.0223
vn 0.7093 0.7049 -0.0021
vn -0.8814 0.4723 -0.0077
vn -0.0845 0.9949 -0.0544
vn -0.2448 -0.9693 -0.0245
vn 0.1524 -0.9881 0.0204
vn 0.1525 -0.9881 0.0203
vn 0.1527 -0.9881 0.0202
vn -0.9870 0.1605 -0.0086
vn 0.0917 -0.9957 0.0084
vn 0.5163 -0.8559 -0.0289
vn 0.9677 -0.2519 0.0027
vn -0.9907 0.1361 0.0063
vn 0.3355 -0.8755 0.3477
vn 0.3275 -0.8766 0.3527
vn 0.3318 -0.8751 0.3524
vn 0.2254 -0.3587 -0.9058
vn 0.2256 -0.3579 -0.9061
vn 0.2256 -0.3586 -0.9058
vn 0.2250 -0.3593 -0.9057
vn 0.6214 0.6999 -0.3522
vn 0.6227 0.6999 -0.3499
vn 0.6296 0.6975 -0.3422
vn -0.9583 -0.2781 0.0660
vn -0.9055 0.3989 -0.1446
vn -0.9052 0.3991 -0.1460
vn -0.9055 0.3982 -0.1464
vn 0.3893 -0.9211 0.0009
vn -0.9927 0.1204 -0.0065
vn -0.7412 0.3812 -0.5525
vn -0.7415 0.3785 -0.5540
vn -0.7416 0.3783 -0.5541
vn 0.9427 0.0916 -0.3208
vn 0.9427 0.0917 -0.3209
vn 0.9426 0.0919 -0.3209
vn -0.9926 -0.1211 0.0101
vn -0.8961 -0.1858 -0.4031
vn 0.1098 -0.9529 -0.2828
vn 0.9999 0.0044 0.0162
vn -0.4276 -0.6342 -0.6442
vn -0.4290 -0.6336 -0.6438
vn -0.4296 -0.6329 -0.6441
vn -0.2985 0.9511 -0.0798
vn -0.2985 0.9511 -0.0795
vn -0.2991 0.9508 -0.0809
vn -0.9910 -0.1334 0.0100
vn -0.9995 0.0058 0.0303
vn -0.6539 -0.7555 0.0402
vn -0.0084 0.9703 0.2418
vn -0.0077 0.9706 0.2407
vn -0.0077 0.9706 0.2406
vn 0.8761 -0.4821 0.0119
vn 0.8766 -0.4810 0.0108
vn 0.8764 -0.4814 0.0110
vn -0.7398 -0.6724 0.0224
vn -0.3628 0.8784 0.3112
vn 0.9961 0.0128 -0.0877
vn -0.9611 -0.2497 0.1181
vn -0.9612 -0.2498 0.1174
vn -0.9609 -0.2506 0.1178
vn 0.0283 -0.8338 0.5514
vn 0.0282 -0.8337 0.5515
vn 0.0285 -0.8338 0.5514
vn -0.9815 -0.1594 -0.1059
vn -0.9827 -0.1480 -0.1117
vn -0.9842 -0.1392 -0.1092
vn -0.9841 -0.1392 -0.1104
vn -0.9958 -0.0724 0.0563
vn 0.9179 -0.2480 0.3096
vn 0.6460 -0.0335 0.7626
vn 0.9459 0.0773 -0.3150
vn 0.9914 0.0312 0.1272
vn 0.9913 0.0278 0.1286
vn 0.9913 0.0254 0.1291
vn 0.9911 0.0369 0.1278
vn -0.9915 -0.1100 0.0691
vn -0.9915 -0.1097 0.0693
vn 0.8488 0.4484 -0.2801
vn 0.5483 0.7899 -0.2747
vn 0.9371 0.3458 0.0484
vn -0.9880 0.1247 0.0910
vn -0.9880 0.1249 0.0911
vn -0.9879 0.1255 0.0913
vn -0.9878 0.1258 0.0915
vn 0.3831 0.5908 0.7101
vn 0.3803 0.5989 0.7047
vn 0.3730 0.6016 0.7064
vn 0.8028 0.3743 -0.4642
vn 0.8041 0.3742 -0.4619
vn 0.8036 0.3746 -0.4626
vn 0.9924 0.1195 -0.0304
vn 0.9925 0.1172 -0.0341
vn 0.9925 0.1172 -0.0349
vn 0.9913 0.1283 -0.0292
vn 0.9924 0.1189 -0.0306
vn 0.9919 0.1250 0.0229
vn 0.9918 0.1270 0.0160
vn 0.9918 0.1268 0.0162
vn 0.9918 0.1266 0.0190
vn 0.9933 0.1119 0.0289
vn -0.9956 0.0103 0.0928
vn -0.9956 0.0099 0.0927
vn -0.9957 0.0101 0.0926
vn -0.9956 0.0109 0.0935
vn -0.9937 -0.1122 -0.0006
vn -0.9943 -0.1058 0.0096
vn -0.9942 -0.1077 0.0008
vn -0.9950 -0.0991 0.0106
vn 0.9996 0.0246 -0.0103
vt 0.733128 0.599644
vt 0.703837 0.560202
vt 0.733128 0.575126
vt 0.136443 0.859140
vt 0.157320 0.833986
vt 0.130684 0.923555
vt 0.685508 0.562798
vt 0.693209 0.629661
vt 0.236162 0.944556
vt 0.264466 0.982853
vt 0.211948 0.950146
vt 0.257139 0.955314
vt 0.191232 0.926174
vt 0.207533 0.901498
vt 0.213383 0.924006
vt 0.439768 0.654857
vt 0.423844 0.628629
vt 0.447067 0.563752
vt 0.763811 0.011094
vt 0.728792 0.320290
vt 0.736995 0.003581
vt 0.525569 0.030211
vt 0.534385 0.002704
vt 0.554874 0.018079
vt 0.050395 0.989222
vt 0.030797 0.985670
vt 0.048411 0.955994
vt 0.217902 0.877839
vt 0.068958 0.823823
vt 0.120903 0.900982
vt 0.101994 0.914558
vt 0.357408 0.096190
vt 0.352874 0.017941
vt 0.388694 0.062031
vt 0.492954 0.018249
vt 0.477991 0.049145
vt 0.478597 0.004128
vt 0.226505 0.915084
vt 0.705989 0.008014
vt 0.238689 0.926602
vt 0.066074 0.928052
vt 0.035995 0.862813
vt 0.089945 0.926053
vt 0.696980 0.346018
vt 0.288503 0.959853
vt 0.408249 0.004957
vt 0.440492 0.342139
vt 0.487721 0.239687
vt 0.521712 0.266652
vt 0.295586 0.828065
vt 0.597624 0.010691
vt 0.620451 0.084655
vt 0.590942 0.493912
vt 0.433574 0.450210
vt 0.652590 0.010621
vt 0.645508 0.396546
vt 0.554395 0.260386
vt 0.185641 0.769395
vt 0.240061 0.673320
vt 0.134436 0.637002
vt 0.158946 0.537734
vt 0.029027 0.672227
vt 0.050459 0.774226
vt 0.259363 0.577557
vt 0.321561 0.700333
vt 0.779962 0.016694
vt 0.760196 0.499917
vt 0.330649 0.265110
vt 0.345218 0.421717
vt 0.069520 0.588290
vt 0.094141 0.667824
vt 0.194137 0.467989
vt 0.169482 0.538256
vt 0.390874 0.503998
vt 0.703828 0.513708
vt 0.502182 0.438177
vt 0.311927 0.458004
vt 0.251527 0.417159
vt 0.727876 0.548026
vt 0.465220 0.255360
vt 0.460481 0.433404
vt 0.655650 0.517728
vt 0.557281 0.436145
vt 0.537453 0.498986
vt 0.005039 0.674019
vt 0.011415 0.442688
vt 0.771854 0.543635
vt 0.676920 0.501565
vt 0.173557 0.305221
vt 0.441650 0.510501
vt 0.398033 0.547264
vt 0.508248 0.570901
vt 0.552452 0.578590
vt 0.550748 0.622214
vt 0.478928 0.494152
vt 0.566963 0.476215
vt 0.073111 0.358774
vt 0.033762 0.402720
vt 0.517883 0.636799
vt 0.270966 0.319956
vt 0.512491 0.529517
vt 0.471939 0.525331
vt 0.314146 0.375567
vt 0.157634 0.182545
vt 0.142719 0.329116
vt 0.177378 0.154247
vt 0.831102 0.184805
vt 0.854568 0.152772
vt 0.850681 0.303182
vt 0.053141 0.182456
vt 0.145493 0.119887
vt 0.829098 0.119768
vt 0.854522 0.099829
vt 0.589185 0.777457
vt 0.573467 0.666411
vt 0.593371 0.672587
vt 0.105467 0.007973
vt 0.832133 0.002780
vt 0.850003 0.008337
vt 0.212333 0.007868
vt 0.277169 0.107731
vt 0.180250 0.096807
vt 0.574285 0.552308
vt 0.417902 0.648120
vt 0.395694 0.655458
vt 0.394661 0.632154
vt 0.622468 0.645232
vt 0.655167 0.602897
vt 0.654088 0.590843
vt 0.374583 0.596909
vt 0.415242 0.566998
vt 0.399131 0.565064
vt 0.351281 0.642066
vt 0.372974 0.637806
vt 0.316217 0.894795
vt 0.310850 0.991185
vt 0.683289 0.696769
vt 0.689881 0.653279
vt 0.701315 0.677385
vt 0.684718 0.454306
vt 0.553688 0.519692
vt 0.634975 0.553572
vt 0.649278 0.552197
vt 0.646011 0.574435
vt 0.091722 0.959070
vt 0.043476 0.959524
vt 0.067532 0.958422
vt 0.159384 0.964815
vt 0.136821 0.952847
vt 0.192556 0.951819
vt 0.169027 0.965329
vt 0.171539 0.859087
vt 0.726539 0.644664
vt 0.115066 0.923488
vt 0.726315 0.555075
vt 0.172894 0.974329
vt 0.431829 0.571526
vt 0.071425 0.954779
vt 0.071182 0.973122
vt 0.279929 0.956488
vt 0.010679 0.884387
vt 0.260047 0.944352
vt 0.068527 0.943816
vt 0.672715 0.053209
vt 0.671322 0.258201
vt 0.794393 0.461549
vt 0.811596 0.483373
vt 0.807836 0.625869
vt 0.793347 0.597980
vt 0.730472 0.620670
vt 0.822447 0.533910
vt 0.169336 0.776012
vt 0.847287 0.429749
vt 0.830501 0.429038
vt 0.831096 0.327447
vt 0.783754 0.498380
vt 0.135985 0.461507
vt 0.793991 0.220981
vt 0.482781 0.640209
vt 0.465364 0.616829
vt 0.347730 0.514095
vt 0.803892 0.155741
vt 0.421035 0.552973
vt 0.623094 0.537224
vt 0.467476 0.596722
vt 0.465193 0.556280
vt 0.820474 0.010164
vt 0.821414 0.165745
vt 0.019829 0.239960
vt 0.044723 0.112822
vt 0.591909 0.558303
vt 0.655462 0.587654
vt 0.600390 0.638963
vt 0.600197 0.559855
vt 0.636585 0.650640
vt 0.659759 0.651587
vt 0.654471 0.673249
vt 0.637029 0.673073
vt 0.363604 0.612724
vt 0.667668 0.692989
vt 0.659676 0.717657
vt 0.589380 0.540241
vt 0.193859 0.618524
vt 0.200111 0.555607
vt 0.209888 0.559723
vt 0.211890 0.584129
vt 0.215292 0.594152
vt 0.373262 0.655109
vt 0.328571 0.632663
vt 0.037324 0.932456
vt 0.031941 0.899532
vt 0.067069 0.906296
vt 0.061380 0.931353
vt 0.094913 0.875636
vt 0.132841 0.869160
vt 0.136892 0.888494
vt 0.091158 0.892174
s 0
usemtl Material.005
f 3/1/1 4/2/2 9/3/3
f 10/4/4 6/5/5 5/6/6
f 15/7/7 4/2/8 8/8/9
f 9/9/10 16/10/11 3/11/11
f 17/12/12 16/10/13 9/9/14
f 12/13/15 19/14/16 18/15/17
f 16/16/18 20/17/19 7/18/20
f 7/19/21 49/20/21 1/21/21
f 21/22/22 4/23/23 15/24/24
f 21/25/25 26/26/26 22/27/27
f 19/14/28 12/13/29 27/28/30
f 23/29/31 19/30/32 28/31/33
f 29/32/34 15/33/34 14/34/34
f 16/35/35 31/36/36 20/37/37
f 19/14/38 27/28/39 28/38/40
f 8/39/41 1/21/41 49/20/41
f 21/22/42 31/36/43 16/35/44
f 28/38/45 27/28/46 33/40/47
f 35/41/48 41/42/49 33/43/50
f 49/20/51 36/44/51 8/39/51
f 27/28/52 25/45/53 33/40/54
f 14/34/55 8/46/55 36/47/55
f 39/48/56 31/36/56 21/22/56
f 21/22/57 15/24/57 40/49/57
f 25/45/58 27/28/59 37/50/60
f 13/51/61 24/52/61 57/53/61
f 36/47/62 59/54/62 14/34/62
f 24/52/63 20/55/63 43/56/63
f 45/57/64 40/49/64 15/24/64
f 57/53/65 24/52/65 43/56/65
f 37/50/66 34/58/66 54/59/66
f 6/5/67 38/60/68 48/61/69
f 41/42/70 46/62/70 44/63/70
f 52/64/71 51/65/71 37/50/71
f 52/64/72 37/50/72 54/59/72
f 13/66/73 55/67/73 7/19/73
f 45/68/74 15/33/74 62/69/74
f 46/62/75 53/70/75 44/63/75
f 54/59/76 34/58/76 52/64/76
f 47/71/77 53/70/77 38/60/77
f 52/64/78 34/58/78 56/72/78
f 48/73/79 56/72/79 34/58/79
f 62/69/80 29/32/80 63/74/80
f 14/34/81 59/54/81 63/74/81
f 49/20/82 60/75/83 36/44/84
f 40/49/85 45/57/85 64/76/85
f 52/64/86 61/77/86 51/65/86
f 56/72/87 74/78/87 52/64/87
f 67/79/88 60/75/88 55/67/88
f 42/80/89 64/76/90 43/81/91
f 57/53/92 43/56/92 72/82/92
f 64/76/93 62/83/94 69/84/95
f 46/62/96 50/85/96 70/86/96
f 77/87/97 67/79/98 55/67/99
f 68/88/100 72/82/101 43/56/102
f 76/89/103 56/72/104 48/73/103
f 63/74/105 60/90/106 73/91/107
f 73/92/108 67/93/108 77/94/108
f 64/76/109 69/84/109 68/95/109
f 62/83/110 71/96/111 69/84/112
f 66/97/113 53/70/113 75/98/113
f 73/92/114 77/94/115 78/99/116
f 74/78/117 65/100/117 52/64/117
f 74/78/118 56/72/118 76/89/118
f 68/95/119 79/101/119 72/102/119
f 70/86/120 75/98/120 46/62/120
f 61/77/121 65/100/122 70/103/123
f 74/78/124 76/89/124 65/100/124
f 81/104/125 80/105/125 66/97/125
f 65/100/126 76/89/126 82/106/126
f 81/107/127 82/108/128 76/109/129
f 81/104/130 83/110/130 84/111/130
f 84/112/131 86/113/132 82/108/133
f 70/114/134 85/115/134 87/116/134
f 88/117/135 84/111/135 83/110/135
f 88/118/136 89/119/137 86/113/138
f 89/120/139 85/121/140 86/122/141
f 89/123/142 87/116/143 85/115/144
f 90/124/145 92/125/145 93/126/145
f 92/127/146 96/128/147 94/129/148
f 94/130/149 93/126/150 92/125/151
f 91/131/152 94/130/153 98/132/154
f 103/133/155 104/134/156 93/126/157
f 25/45/158 32/135/159 26/136/160
f 16/137/161 26/138/161 21/139/161
f 36/44/162 60/75/162 59/140/162
f 71/141/163 79/101/164 69/84/165
f 98/142/166 100/143/167 95/144/168
f 99/145/169 109/146/170 107/147/171
f 6/5/172 1/148/173 2/149/174 5/6/175
f 12/13/176 11/150/177 1/151/178 6/152/179
f 8/8/180 4/2/181 1/153/182
f 19/30/183 10/4/184 5/6/185 18/154/186
f 17/155/187 9/3/187 4/2/187
f 7/156/188 11/150/189 3/11/190 16/10/191
f 7/18/192 20/17/193 13/157/194
f 8/46/195 14/34/195 15/33/195
f 22/27/196 17/158/197 4/159/198 21/25/199
f 16/10/200 17/12/201 22/160/202 25/45/203
f 19/30/204 23/29/205 10/4/206
f 26/26/207 32/161/208 41/42/209 22/27/210
f 24/52/211 13/51/211 20/55/211
f 22/160/212 30/162/213 25/45/214
f 25/45/215 26/136/216 16/10/217
f 28/31/218 33/43/218 41/42/218 23/29/218
f 41/42/219 35/41/220 30/163/221 22/27/222
f 6/152/223 34/58/224 12/13/225
f 31/164/226 42/165/226 43/56/226 20/55/226
f 27/28/227 12/13/227 34/58/227
f 6/5/228 10/4/228 38/60/228
f 27/28/229 34/58/229 37/50/229
f 38/60/230 10/4/230 23/29/230
f 42/80/231 31/36/231 39/48/231
f 51/166/232 50/167/232 32/168/232 37/169/232
f 39/48/233 21/22/233 40/49/233
f 32/135/234 25/45/235 37/50/236
f 4/2/237 3/1/238 2/170/239 1/153/240
f 41/42/241 44/63/241 23/29/241
f 47/71/242 23/29/242 44/63/242
f 23/29/243 47/71/243 38/60/243
f 32/168/244 50/167/244 41/171/244
f 6/172/245 48/73/245 34/58/245
f 76/109/246 48/173/247 58/174/248 80/175/249
f 44/63/250 53/70/250 47/71/250
f 7/19/251 55/67/251 49/20/251
f 62/69/252 15/33/252 29/32/252
f 41/42/253 50/85/254 46/62/255
f 63/74/256 29/32/256 14/34/256
f 13/66/257 57/176/257 55/67/257
f 48/61/258 38/60/258 58/177/258
f 55/67/259 60/75/259 49/20/259
f 64/76/260 45/57/260 62/83/260
f 50/167/261 51/166/262 61/178/263
f 58/177/264 38/60/264 53/70/264
f 39/48/265 40/49/265 64/76/265
f 42/80/266 39/48/266 64/76/266
f 52/64/267 65/100/267 61/77/267
f 53/70/268 66/97/268 58/177/268
f 43/81/269 64/76/270 68/95/271
f 73/92/272 78/99/273 72/179/274 79/180/275
f 55/67/276 57/176/277 77/87/278
f 71/181/279 62/69/279 63/74/279
f 63/74/280 59/54/281 60/90/282
f 70/182/283 50/167/283 61/178/283
f 66/97/284 80/105/284 58/177/284
f 73/91/285 60/90/286 67/183/287
f 57/53/288 72/82/289 78/184/290
f 75/98/291 53/70/291 46/62/291
f 71/181/292 63/74/292 73/91/292
f 79/101/293 68/95/293 69/84/293
f 86/122/294 85/121/294 65/100/294 82/106/294
f 73/92/295 79/185/296 71/186/297
f 76/109/298 80/175/299 81/107/300
f 66/97/301 75/98/301 83/110/301
f 81/104/302 66/97/302 83/110/302
f 70/182/303 83/187/303 75/188/303
f 81/107/304 84/112/305 82/108/306
f 70/103/307 65/100/308 85/121/309
f 83/110/310 70/189/310 87/190/310
f 84/112/311 88/118/311 86/113/311
f 91/131/312 90/124/312 93/126/312 94/130/312
f 87/190/313 88/117/314 83/110/315
f 89/123/316 88/191/317 87/116/318
f 95/144/319 97/192/320 96/128/321 90/193/322
f 91/194/323 95/144/323 90/193/323
f 92/127/324 90/193/325 96/128/326
f 92/195/327 93/196/328 104/197/329 105/198/330
f 91/194/331 98/142/331 95/144/332
f 103/133/333 96/199/334 104/134/335
f 101/200/336 102/201/337 105/198/338 104/197/339
f 1/151/340 11/150/341 7/156/342
f 57/53/343 78/184/344 77/202/345
f 103/133/351 93/126/352 92/125/353 105/208/354 102/209/355
f 109/210/356 108/211/357 106/212/358 107/213/359
f 106/214/360 5/215/361 2/216/362 107/217/363
f 17/12/364 9/9/364 3/11/364 11/150/364 19/14/364 28/38/364 33/40/364 25/45/364 30/162/364 22/160/364
usemtl 
f 107/203/346 2/204/347 5/205/348 18/206/349 106/207/350
l 110 99
